<?xml version="1.0" encoding="utf-8"?>
<!-- Generator: Adobe Illustrator 15.0.0, SVG Export Plug-In  -->
<!DOCTYPE svg PUBLIC "-//W3C//DTD SVG 1.1//EN" "http://www.w3.org/Graphics/SVG/1.1/DTD/svg11.dtd" [
	<!ENTITY ns_flows "http://ns.adobe.com/Flows/1.0/">
]>
<svg version="1.1"
	 xmlns="http://www.w3.org/2000/svg" xmlns:xlink="http://www.w3.org/1999/xlink" xmlns:a="http://ns.adobe.com/AdobeSVGViewerExtensions/3.0/"
	 x="0px" y="0px" width="148px" height="138px" viewBox="-8.502 -3.642 148 138"
	 overflow="visible" enable-background="new -8.502 -3.642 148 138" xml:space="preserve">
<defs>
</defs>
<path fill="#512A5B" d="M80.488,3.082c-0.245-0.43-0.581-0.784-1.214-0.876c-0.984,0.457-0.984,1.726-0.027,2.137
	c-0.005,0.019-0.011,0.038-0.011,0.057c0.283,3.539-1.792,5.59-3.585,6.687c-1.587,0.97-3.576,1.578-5.683,1.836
	c0.817-0.315,1.583-0.773,2.237-1.371c1.17-1.074,3.566-4.129,1.008-9.523l0.133-0.238c0.198-0.316,0.433-0.615,0.169-1.196
	c-0.376-0.329-0.805-0.552-1.436-0.433c-0.781,0.752-0.367,1.958,0.667,2.036c1.729,3.619,1.416,6.885-0.878,8.987
	c-0.383,0.351-0.807,0.65-1.259,0.896c1.679-1.741,1.702-4.339,0.04-6.977c-0.023-0.04-0.063-0.064-0.107-0.077l0.019-0.037
	c0.192-0.321,0.421-0.624,0.144-1.2c-0.382-0.319-0.816-0.535-1.448-0.402c-0.85,0.857-0.212,2.25,1.091,1.997l0.007-0.014
	c1.543,2.491,1.511,4.921-0.091,6.514c-0.323,0.317-0.683,0.575-1.063,0.774c-1.118,0.322-2.302,0.363-3.401,0.111
	c-0.063-0.033-0.129-0.055-0.19-0.093c-1.668-1.067-1.907-3.65-0.659-7.084c0.019-0.051,0.014-0.104-0.007-0.148l0.082-0.015
	c0.374-0.047,0.751-0.055,1.035-0.627c0.019-0.496-0.078-0.972-0.57-1.386c-1.196-0.144-1.9,1.206-0.916,2.075
	c-1.44,3.98-0.663,5.976,0.162,6.928c-0.229-0.101-0.452-0.211-0.664-0.341c-2.681-1.646-3.526-5.224-2.354-9.854
	c0.031,0.014,0.053,0.035,0.086,0.046l0.386-0.228c0.332-0.178,0.68-0.322,0.741-0.958C62.769,0.62,62.504,0.208,61.899,0
	c-0.96,0.244-1.235,1.305-0.62,1.93c-1.294,4.94-0.384,8.785,2.533,10.572c0.175,0.108,0.361,0.191,0.544,0.28
	c-1.847-0.324-3.588-0.922-5.014-1.801c-1.755-1.079-3.79-3.046-3.541-6.3l0.068-0.033c0.395-0.24,0.88-0.391,0.793-1.111
	c-0.241-1.265-2.284-1.143-2.222,0.317c0.07,0.477,0.514,0.584,0.868,0.782c-0.216,2.776,1.086,5.116,3.771,6.768
	c2.332,1.434,5.461,2.151,8.569,2.151c3.024,0,6.028-0.68,8.26-2.044c2.736-1.676,4.06-4.15,3.821-7.148
	c0-0.006-0.002-0.01-0.004-0.017l0.211-0.186C80.23,3.923,80.546,3.718,80.488,3.082z"/>
<path fill="#512A5B" d="M99.738,14.67c-0.017-0.498-0.146-0.964-0.663-1.345c-1.085-0.057-1.678,1.064-1.027,1.876
	c-0.011,0.015-0.023,0.029-0.032,0.047c-1.414,3.256-4.209,4.093-6.306,4.22c-1.854,0.115-3.896-0.284-5.877-1.042
	c0.872,0.104,1.761,0.059,2.62-0.163c1.537-0.398,5.083-1.975,5.354-7.936l0.23-0.146c0.324-0.189,0.671-0.341,0.709-0.979
	c-0.176-0.465-0.45-0.867-1.064-1.056c-1.042,0.299-1.243,1.558-0.365,2.112c-0.171,4.005-1.978,6.746-4.99,7.525
	c-0.505,0.13-1.02,0.193-1.532,0.201c2.301-0.75,3.54-3.031,3.31-6.141c-0.004-0.05-0.029-0.089-0.059-0.121l0.031-0.023
	c0.321-0.195,0.663-0.354,0.692-0.993c-0.189-0.461-0.473-0.854-1.089-1.031c-1.155,0.356-1.246,1.887,0.025,2.272l0.011-0.008
	c0.196,2.924-0.972,5.056-3.136,5.709c-0.431,0.129-0.871,0.188-1.3,0.187c-1.136-0.239-2.202-0.757-3.057-1.498
	c-0.038-0.059-0.085-0.111-0.121-0.171c-0.975-1.725,0.025-4.119,2.74-6.565c0.038-0.037,0.062-0.085,0.062-0.135l0.08,0.028
	c0.351,0.13,0.69,0.303,1.208-0.07c0.251-0.429,0.384-0.896,0.147-1.489c-0.99-0.689-2.242,0.172-1.784,1.4
	c-3.137,2.841-3.388,4.966-3.105,6.195c-0.153-0.198-0.299-0.399-0.426-0.615c-1.596-2.708-0.665-6.263,2.544-9.803
	c0.019,0.026,0.029,0.053,0.053,0.079l0.449-0.02c0.376-0.002,0.75,0.035,1.1-0.497c0.078-0.492,0.038-0.977-0.398-1.445
	c-0.963-0.235-1.699,0.576-1.45,1.415c-3.465,3.753-4.461,7.578-2.726,10.525c0.105,0.174,0.23,0.336,0.351,0.502
	c-1.478-1.153-2.736-2.499-3.585-3.942c-1.045-1.776-1.917-4.469-0.171-7.225l0.076,0.002c0.462-0.027,0.961,0.068,1.223-0.609
	c0.378-1.233-1.479-2.081-2.113-0.763c-0.16,0.457,0.182,0.76,0.4,1.099c-1.492,2.351-1.441,5.029,0.156,7.748
	c1.388,2.358,3.812,4.459,6.56,5.918c2.668,1.418,5.641,2.227,8.252,2.066c3.202-0.196,5.528-1.758,6.726-4.519
	c0.002-0.005,0.002-0.012,0.007-0.018l0.271-0.064C99.113,15.293,99.491,15.259,99.738,14.67z"/>
<path fill="#512A5B" d="M109.776,34.997c0.269-0.419,0.425-0.88,0.211-1.483c-0.861-0.661-1.986-0.068-1.906,0.966
	c-0.017,0.007-0.035,0.011-0.053,0.022c-3.002,1.892-5.784,1.007-7.587-0.069c-1.596-0.953-3.059-2.435-4.265-4.179
	c0.659,0.576,1.419,1.043,2.255,1.341c1.49,0.54,5.312,1.241,8.898-3.532l0.272,0.009c0.371,0.03,0.745,0.094,1.136-0.408
	c0.118-0.481,0.118-0.969-0.281-1.472c-1.03-0.34-1.908,0.585-1.497,1.54c-2.402,3.21-5.438,4.452-8.363,3.397
	c-0.488-0.175-0.948-0.414-1.381-0.699c2.324,0.68,4.636-0.508,6.202-3.205c0.023-0.042,0.025-0.089,0.015-0.132h0.04
	c0.376,0.021,0.748,0.08,1.132-0.432c0.105-0.485,0.093-0.972-0.314-1.466c-1.155-0.357-2.092,0.856-1.263,1.891h0.013
	c-1.488,2.525-3.654,3.627-5.81,2.945c-0.429-0.136-0.823-0.336-1.178-0.58c-0.805-0.836-1.389-1.866-1.679-2.96
	c0-0.067-0.01-0.137-0.004-0.208c0.169-1.975,2.348-3.387,5.968-3.876c0.053-0.007,0.098-0.037,0.125-0.076l0.053,0.066
	c0.215,0.31,0.395,0.64,1.036,0.625c0.447-0.215,0.821-0.524,0.961-1.149c-0.431-1.126-1.953-1.121-2.266,0.154
	c-4.19,0.574-5.596,2.19-6.057,3.359c-0.015-0.248-0.022-0.496-0.006-0.744c0.209-3.139,2.984-5.549,7.631-6.664
	c0.003,0.034-0.006,0.062-0.002,0.096l0.383,0.239c0.31,0.208,0.602,0.452,1.192,0.208c0.34-0.361,0.58-0.784,0.481-1.419
	c-0.659-0.735-1.728-0.483-1.995,0.352c-4.978,1.148-7.956,3.742-8.185,7.155c-0.015,0.204-0.002,0.408,0.004,0.609
	c-0.571-1.785-0.849-3.603-0.734-5.276c0.14-2.056,0.938-4.769,3.931-6.062l0.06,0.044c0.398,0.239,0.758,0.598,1.357,0.186
	c1.007-0.803-0.051-2.553-1.313-1.82c-0.393,0.286-0.28,0.729-0.291,1.132c-2.557,1.1-4.026,3.34-4.239,6.487
	c-0.186,2.728,0.634,5.834,2.077,8.586c1.402,2.678,3.403,5.021,5.647,6.36c2.757,1.645,5.558,1.668,8.106,0.061
	c0.002-0.002,0.004-0.007,0.01-0.011l0.263,0.1C108.911,35.158,109.24,35.346,109.776,34.997z"/>
<path fill="#512A5B" d="M108.602,57.11c0.433-0.236,0.794-0.562,0.906-1.194c-0.434-0.996-1.706-1.023-2.137-0.08
	c-0.021-0.003-0.038-0.011-0.06-0.009c-3.544,0.192-5.541-1.936-6.595-3.753c-0.929-1.608-1.488-3.615-1.69-5.725
	c0.291,0.825,0.73,1.603,1.312,2.27c1.043,1.197,4.039,3.667,9.496,1.245l0.231,0.139c0.312,0.207,0.606,0.446,1.193,0.197
	c0.338-0.363,0.574-0.791,0.467-1.423c-0.73-0.799-1.949-0.418-2.05,0.617c-3.663,1.637-6.92,1.244-8.962-1.1
	c-0.342-0.393-0.629-0.825-0.865-1.282c1.699,1.724,4.294,1.809,6.975,0.216c0.04-0.024,0.065-0.065,0.076-0.107l0.038,0.021
	c0.316,0.198,0.616,0.434,1.197,0.172c0.329-0.373,0.553-0.804,0.438-1.434c-0.838-0.875-2.246-0.27-2.024,1.036l0.015,0.007
	c-2.526,1.481-4.961,1.391-6.508-0.254c-0.311-0.326-0.56-0.694-0.752-1.079c-0.291-1.123-0.306-2.308-0.025-3.401
	c0.034-0.062,0.06-0.128,0.1-0.187c1.108-1.641,3.698-1.817,7.097-0.484c0.053,0.021,0.104,0.019,0.148-0.003l0.015,0.085
	c0.036,0.373,0.033,0.751,0.6,1.049c0.496,0.03,0.975-0.056,1.399-0.537c0.171-1.192-1.161-1.928-2.05-0.967
	c-3.945-1.537-5.959-0.81-6.929-0.012c0.105-0.225,0.22-0.444,0.359-0.653c1.708-2.641,5.305-3.396,9.902-2.11
	c-0.013,0.033-0.033,0.053-0.044,0.085l0.215,0.394c0.172,0.333,0.305,0.687,0.939,0.761c0.474-0.148,0.887-0.404,1.113-1.004
	c-0.22-0.967-1.273-1.265-1.913-0.665c-4.908-1.417-8.775-0.6-10.633,2.27c-0.112,0.172-0.201,0.353-0.294,0.535
	c0.372-1.838,1.014-3.562,1.926-4.968c1.123-1.727,3.139-3.71,6.386-3.381l0.031,0.068c0.23,0.401,0.367,0.889,1.09,0.821
	c1.271-0.211,1.201-2.254-0.258-2.231c-0.481,0.06-0.6,0.502-0.805,0.85c-2.771-0.285-5.143,0.959-6.86,3.605
	c-1.49,2.292-2.286,5.403-2.362,8.509c-0.078,3.022,0.527,6.043,1.839,8.305c1.606,2.778,4.044,4.163,7.046,4
	c0.007-0.001,0.013-0.006,0.02-0.006l0.18,0.216C107.766,56.83,107.962,57.154,108.602,57.11z"/>
<path fill="#512A5B" d="M97.999,76.59c0.492-0.037,0.958-0.189,1.313-0.723c0.008-1.084-1.139-1.627-1.919-0.94
	c-0.018-0.01-0.03-0.022-0.049-0.032c-3.316-1.264-4.279-4.02-4.499-6.108c-0.198-1.847,0.11-3.908,0.777-5.92
	c-0.063,0.874,0.021,1.762,0.28,2.608c0.467,1.518,2.2,4.994,8.172,4.998l0.154,0.222c0.2,0.314,0.369,0.654,1.012,0.665
	c0.451-0.196,0.842-0.491,1.004-1.109c-0.346-1.029-1.612-1.174-2.125-0.271c-4.012,0.007-6.829-1.677-7.743-4.649
	c-0.15-0.497-0.239-1.008-0.269-1.522c0.851,2.263,3.192,3.398,6.284,3.031c0.049-0.005,0.087-0.032,0.118-0.066l0.023,0.036
	c0.209,0.31,0.387,0.643,1.024,0.643c0.449-0.207,0.831-0.509,0.981-1.131c-0.407-1.138-1.94-1.159-2.27,0.123l0.009,0.012
	c-2.911,0.327-5.097-0.744-5.846-2.876c-0.147-0.424-0.226-0.862-0.243-1.291c0.187-1.146,0.659-2.231,1.359-3.12
	c0.056-0.042,0.106-0.091,0.165-0.128c1.681-1.049,4.116-0.158,6.684,2.441c0.038,0.04,0.085,0.059,0.135,0.059l-0.021,0.082
	c-0.12,0.355-0.274,0.701,0.122,1.203c0.439,0.229,0.912,0.344,1.497,0.078c0.64-1.019-0.276-2.234-1.482-1.717
	c-2.98-3.007-5.112-3.161-6.328-2.827c0.191-0.165,0.384-0.316,0.595-0.454c2.635-1.714,6.229-0.943,9.909,2.104
	c-0.027,0.02-0.053,0.03-0.08,0.056l0.042,0.446c0.02,0.375-0.002,0.75,0.547,1.079c0.492,0.056,0.976-0.006,1.425-0.465
	c0.19-0.971-0.647-1.673-1.479-1.385c-3.905-3.29-7.769-4.116-10.636-2.25c-0.171,0.112-0.327,0.243-0.485,0.371
	c1.085-1.529,2.373-2.843,3.781-3.758c1.725-1.121,4.376-2.113,7.207-0.493v0.074c0.048,0.462-0.025,0.963,0.665,1.194
	c1.245,0.325,2.01-1.57,0.669-2.142c-0.465-0.141-0.754,0.214-1.083,0.447c-2.413-1.386-5.088-1.213-7.73,0.505
	c-2.293,1.488-4.285,4.009-5.617,6.816c-1.301,2.729-1.977,5.733-1.7,8.334c0.34,3.192,2.006,5.446,4.817,6.52
	c0.005,0,0.011,0,0.018,0.003l0.073,0.268C97.348,75.996,97.399,76.372,97.999,76.59z"/>
<path fill="#512A5B" d="M76.899,86.333c0.422,0.263,0.882,0.418,1.481,0.201c0.655-0.866,0.053-1.986-0.981-1.898
	c-0.004-0.018-0.008-0.037-0.019-0.055c-1.915-2.988-1.047-5.777,0.017-7.587c0.939-1.601,2.411-3.078,4.144-4.294
	c-0.569,0.662-1.029,1.427-1.325,2.261c-0.527,1.498-1.201,5.323,3.597,8.877l-0.008,0.271c-0.023,0.374-0.087,0.747,0.42,1.136
	c0.481,0.111,0.969,0.108,1.465-0.296c0.338-1.031-0.595-1.901-1.545-1.479c-3.23-2.382-4.494-5.41-3.46-8.343
	c0.173-0.491,0.407-0.953,0.688-1.387c-0.663,2.33,0.544,4.632,3.251,6.177c0.037,0.024,0.088,0.024,0.131,0.017v0.042
	c-0.016,0.375-0.074,0.746,0.44,1.126c0.488,0.104,0.972,0.085,1.461-0.326c0.349-1.157-0.869-2.085-1.897-1.252v0.018
	c-2.535-1.469-3.652-3.63-2.987-5.79c0.131-0.428,0.331-0.827,0.57-1.182c0.834-0.811,1.859-1.404,2.946-1.703
	c0.072,0.001,0.14-0.009,0.214-0.003c1.972,0.156,3.4,2.32,3.916,5.937c0.011,0.054,0.038,0.098,0.076,0.128l-0.065,0.052
	c-0.307,0.216-0.638,0.4-0.617,1.04c0.216,0.447,0.53,0.82,1.155,0.953c1.123-0.437,1.108-1.959-0.169-2.261
	c-0.606-4.188-2.229-5.582-3.405-6.035c0.249-0.02,0.496-0.027,0.745-0.012c3.144,0.187,5.571,2.947,6.72,7.583
	c-0.036,0.003-0.063-0.005-0.1-0.001l-0.234,0.382c-0.207,0.313-0.447,0.604-0.198,1.195c0.361,0.337,0.787,0.573,1.421,0.471
	c0.732-0.666,0.471-1.73-0.365-1.991c-1.185-4.971-3.8-7.932-7.214-8.135c-0.202-0.01-0.405,0.002-0.609,0.01
	c1.781-0.582,3.595-0.876,5.269-0.773c2.057,0.125,4.779,0.902,6.091,3.888l-0.04,0.062c-0.236,0.398-0.598,0.757-0.178,1.354
	c0.807,1.002,2.55-0.066,1.812-1.328c-0.289-0.386-0.732-0.273-1.138-0.281c-1.115-2.55-3.369-4.001-6.517-4.191
	c-2.728-0.168-5.827,0.673-8.571,2.137c-2.664,1.425-4.995,3.439-6.318,5.692c-1.625,2.768-1.625,5.571-0.006,8.105
	c0.006,0.004,0.01,0.007,0.015,0.014l-0.102,0.262C76.732,85.47,76.546,85.801,76.899,86.333z"/>
<path fill="#512A5B" d="M55.032,86.51c0.267,0.418,0.617,0.757,1.252,0.823c0.965-0.498,0.908-1.767-0.062-2.136
	c0.003-0.021,0.007-0.037,0.005-0.06c-0.432-3.522,1.558-5.659,3.301-6.832c1.541-1.036,3.506-1.729,5.597-2.076
	c-0.803,0.35-1.547,0.841-2.177,1.465c-1.124,1.123-3.385,4.276-0.601,9.559l-0.123,0.242c-0.186,0.325-0.404,0.635-0.117,1.204
	c0.386,0.311,0.826,0.515,1.453,0.369c0.747-0.785,0.282-1.973-0.754-2.005c-1.882-3.543-1.708-6.822,0.493-9.017
	c0.367-0.366,0.779-0.683,1.222-0.949c-1.605,1.809-1.516,4.408,0.253,6.974c0.025,0.04,0.069,0.06,0.113,0.072l-0.019,0.036
	c-0.176,0.331-0.39,0.642-0.092,1.208c0.396,0.302,0.84,0.497,1.46,0.34c0.817-0.894,0.119-2.258-1.168-1.951l-0.007,0.015
	c-1.649-2.421-1.721-4.854-0.188-6.513c0.306-0.329,0.656-0.603,1.03-0.818c1.101-0.372,2.279-0.461,3.394-0.257
	c0.063,0.032,0.131,0.052,0.19,0.087c1.714,0.996,2.064,3.567,0.965,7.05c-0.017,0.052-0.011,0.105,0.013,0.147l-0.082,0.018
	c-0.372,0.063-0.748,0.085-1.01,0.67c0.005,0.497,0.123,0.97,0.634,1.362c1.197,0.089,1.845-1.288,0.825-2.112
	c1.267-4.041,0.405-5.999-0.458-6.915c0.232,0.087,0.46,0.191,0.68,0.312c2.749,1.527,3.743,5.066,2.77,9.743
	c-0.031-0.009-0.055-0.032-0.088-0.042l-0.376,0.247c-0.323,0.189-0.665,0.345-0.697,0.985c0.18,0.463,0.461,0.859,1.077,1.044
	c0.947-0.285,1.176-1.356,0.532-1.955c1.087-4.993,0.01-8.795-2.979-10.457c-0.177-0.097-0.367-0.174-0.555-0.254
	c1.859,0.246,3.622,0.769,5.088,1.584c1.798,1.004,3.913,2.881,3.804,6.143l-0.065,0.037c-0.387,0.256-0.863,0.426-0.745,1.145
	c0.296,1.253,2.33,1.044,2.206-0.413c-0.093-0.474-0.541-0.563-0.899-0.743c0.097-2.781-1.307-5.065-4.06-6.603
	c-2.388-1.333-5.548-1.916-8.653-1.784c-3.02,0.129-5.993,0.935-8.162,2.395c-2.664,1.791-3.881,4.317-3.516,7.303
	c0.002,0.006,0.004,0.012,0.005,0.018l-0.202,0.192C55.257,85.656,54.948,85.877,55.032,86.51z"/>
<path fill="#512A5B" d="M36.26,73.032c-0.037,0.493,0.039,0.975,0.51,1.408c1.072,0.177,1.786-0.873,1.229-1.75
	c0.014-0.015,0.028-0.026,0.039-0.044c1.764-3.081,4.634-3.604,6.733-3.499c1.852,0.092,3.842,0.709,5.725,1.685
	c-0.853-0.201-1.744-0.252-2.621-0.129c-1.572,0.227-5.271,1.403-6.199,7.302l-0.243,0.118c-0.342,0.151-0.704,0.266-0.815,0.895
	c0.125,0.479,0.355,0.909,0.944,1.164c1.069-0.183,1.407-1.412,0.594-2.058c0.613-3.964,2.712-6.487,5.791-6.928
	c0.514-0.074,1.034-0.081,1.547-0.033c-2.371,0.492-3.853,2.626-3.969,5.742c-0.002,0.048,0.018,0.089,0.048,0.125l-0.039,0.018
	c-0.337,0.16-0.696,0.281-0.794,0.913c0.135,0.477,0.374,0.9,0.965,1.146c1.189-0.227,1.445-1.74,0.23-2.262l-0.014,0.005
	c0.127-2.927,1.522-4.917,3.746-5.33c0.442-0.08,0.886-0.088,1.312-0.039c1.105,0.361,2.104,0.994,2.874,1.824
	c0.032,0.062,0.073,0.118,0.099,0.183c0.776,1.823-0.481,4.091-3.446,6.224c-0.044,0.032-0.07,0.077-0.076,0.128l-0.079-0.036
	c-0.333-0.173-0.649-0.377-1.208-0.065c-0.294,0.397-0.48,0.849-0.309,1.468c0.909,0.791,2.25,0.072,1.927-1.199
	c3.431-2.479,3.91-4.563,3.77-5.813c0.134,0.209,0.253,0.427,0.355,0.656c1.29,2.867-0.029,6.301-3.609,9.463
	c-0.02-0.026-0.024-0.058-0.043-0.085l-0.45-0.029c-0.372-0.04-0.741-0.118-1.149,0.375c-0.131,0.479-0.143,0.965,0.239,1.481
	c0.932,0.339,1.754-0.385,1.595-1.249c3.857-3.351,5.27-7.042,3.868-10.161c-0.083-0.185-0.188-0.36-0.29-0.537
	c1.341,1.31,2.443,2.783,3.127,4.313c0.841,1.878,1.41,4.652-0.628,7.198l-0.072-0.011c-0.463-0.023-0.948-0.174-1.284,0.473
	c-0.514,1.182,1.244,2.23,2.014,0.99c0.211-0.434-0.096-0.774-0.274-1.135c1.744-2.172,1.983-4.841,0.696-7.717
	c-1.116-2.498-3.298-4.854-5.865-6.606c-2.495-1.703-5.362-2.836-7.973-2.963c-3.207-0.158-5.691,1.138-7.184,3.749
	c-0.003,0.007-0.005,0.013-0.007,0.017l-0.278,0.035C36.949,72.481,36.569,72.472,36.26,73.032z"/>
<path fill="#512A5B" d="M23.884,54.849c-0.208,0.449-0.301,0.928-0.009,1.497c0.942,0.538,1.976-0.2,1.758-1.215
	c0.018-0.011,0.035-0.016,0.051-0.028c2.722-2.279,5.596-1.773,7.528-0.948c1.708,0.729,3.357,1.999,4.786,3.565
	c-0.729-0.482-1.545-0.842-2.411-1.028c-1.554-0.333-5.43-0.514-8.349,4.696l-0.269,0.026c-0.375,0.024-0.751,0.006-1.072,0.56
	c-0.052,0.493,0.016,0.975,0.478,1.418c1.065,0.201,1.811-0.837,1.271-1.724c1.951-3.505,4.794-5.144,7.834-4.489
	c0.51,0.107,0.999,0.281,1.463,0.505c-2.393-0.361-4.523,1.126-5.712,4.009c-0.02,0.043-0.013,0.09,0,0.134l-0.041,0.003
	c-0.374,0.033-0.75,0.022-1.063,0.58c-0.038,0.495,0.039,0.975,0.51,1.41c1.193,0.2,1.959-1.129,1-2.042h-0.015
	c1.134-2.701,3.136-4.083,5.362-3.698c0.441,0.077,0.861,0.225,1.245,0.417c0.911,0.724,1.63,1.663,2.062,2.705
	c0.009,0.073,0.028,0.137,0.031,0.21c0.097,1.979-1.872,3.669-5.392,4.641c-0.051,0.015-0.091,0.047-0.116,0.092l-0.06-0.059
	c-0.253-0.277-0.479-0.58-1.108-0.48c-0.416,0.27-0.749,0.628-0.799,1.27c0.577,1.055,2.083,0.848,2.221-0.457
	c4.081-1.134,5.252-2.923,5.552-4.145c0.053,0.246,0.091,0.49,0.107,0.739c0.214,3.139-2.215,5.899-6.667,7.625
	c-0.01-0.033-0.003-0.062-0.013-0.094l-0.409-0.184c-0.335-0.167-0.655-0.37-1.209-0.047c-0.29,0.402-0.471,0.854-0.29,1.469
	c0.757,0.641,1.78,0.248,1.932-0.617c4.779-1.804,7.383-4.777,7.151-8.188c-0.015-0.203-0.05-0.402-0.087-0.604
	c0.804,1.694,1.326,3.457,1.438,5.129c0.138,2.055-0.289,4.854-3.085,6.535l-0.063-0.037c-0.427-0.181-0.828-0.491-1.368-0.002
	c-0.889,0.93,0.392,2.523,1.546,1.628c0.35-0.335,0.178-0.76,0.135-1.159c2.389-1.433,3.54-3.851,3.33-6.997
	c-0.18-2.729-1.409-5.696-3.209-8.231c-1.751-2.461-4.045-4.519-6.449-5.542c-2.952-1.262-5.733-0.909-8.041,1.022
	c-0.005,0.006-0.007,0.01-0.012,0.015l-0.271-0.064C24.721,54.571,24.369,54.432,23.884,54.849z"/>
<path fill="#512A5B" d="M26.164,31.113c-0.423,0.251-0.775,0.592-0.857,1.228c0.471,0.978,1.739,0.959,2.136-0.001
	c0.021,0.003,0.039,0.009,0.059,0.006c3.536-0.328,5.613,1.72,6.733,3.496c0.991,1.57,1.629,3.555,1.914,5.655
	c-0.326-0.812-0.797-1.571-1.401-2.216c-1.088-1.157-4.178-3.51-9.537-0.876l-0.239-0.133c-0.318-0.194-0.622-0.423-1.199-0.15
	c-0.323,0.377-0.541,0.812-0.412,1.441c0.762,0.768,1.963,0.339,2.025-0.698c3.597-1.775,6.867-1.509,8.998,0.757
	c0.358,0.379,0.661,0.798,0.914,1.248c-1.763-1.657-4.36-1.644-6.978,0.053c-0.039,0.024-0.062,0.065-0.076,0.11l-0.035-0.018
	c-0.325-0.189-0.63-0.411-1.204-0.126c-0.312,0.384-0.523,0.824-0.381,1.448c0.869,0.842,2.252,0.183,1.982-1.112l-0.012-0.009
	c2.468-1.578,4.899-1.579,6.512,0.003c0.322,0.313,0.583,0.675,0.79,1.049c0.336,1.112,0.394,2.295,0.158,3.401
	c-0.033,0.061-0.055,0.126-0.093,0.187c-1.045,1.683-3.624,1.958-7.074,0.759c-0.049-0.02-0.104-0.014-0.147,0.007l-0.015-0.083
	c-0.052-0.371-0.066-0.747-0.643-1.024c-0.494-0.014-0.97,0.093-1.376,0.59c-0.125,1.197,1.232,1.882,2.086,0.887
	c4,1.384,5.982,0.578,6.926-0.258c-0.097,0.232-0.206,0.455-0.334,0.671c-1.607,2.701-5.174,3.596-9.819,2.485
	c0.011-0.032,0.036-0.052,0.045-0.085l-0.235-0.384c-0.179-0.329-0.328-0.673-0.967-0.724c-0.467,0.166-0.872,0.438-1.073,1.046
	c0.258,0.955,1.324,1.214,1.939,0.589c4.959,1.229,8.791,0.263,10.537-2.675c0.104-0.176,0.187-0.362,0.273-0.546
	c-0.303,1.851-0.874,3.599-1.733,5.037c-1.054,1.771-2.996,3.832-6.25,3.627l-0.032-0.069c-0.249-0.392-0.402-0.874-1.125-0.775
	c-1.26,0.257-1.111,2.296,0.348,2.214c0.478-0.076,0.578-0.522,0.771-0.875c2.778,0.177,5.099-1.159,6.716-3.867
	c1.403-2.349,2.077-5.487,2.033-8.597c-0.04-3.021-0.759-6.017-2.157-8.227c-1.713-2.714-4.202-4.004-7.198-3.725
	c-0.005,0.003-0.012,0.003-0.017,0.004l-0.188-0.208C27.013,31.361,26.803,31.046,26.164,31.113z"/>
<path fill="#512A5B" d="M36.498,11.095c-0.487,0.085-0.933,0.279-1.235,0.844c0.091,1.081,1.287,1.513,1.998,0.756
	c0.017,0.009,0.032,0.021,0.054,0.027c3.421,0.942,4.64,3.595,5.058,5.653c0.369,1.819,0.264,3.9-0.214,5.964
	c-0.017-0.873-0.186-1.749-0.524-2.568c-0.61-1.466-2.664-4.761-8.61-4.197l-0.175-0.207c-0.23-0.296-0.431-0.615-1.069-0.567
	c-0.435,0.238-0.792,0.57-0.895,1.202c0.442,0.99,1.717,1.014,2.141,0.066c3.994-0.388,6.959,1.02,8.148,3.894
	c0.2,0.479,0.334,0.978,0.415,1.488c-1.063-2.173-3.498-3.08-6.545-2.42c-0.046,0.01-0.083,0.04-0.112,0.075l-0.025-0.029
	c-0.24-0.29-0.443-0.606-1.082-0.543c-0.428,0.248-0.779,0.584-0.869,1.219c0.514,1.095,2.042,0.968,2.249-0.339l-0.01-0.011
	c2.868-0.603,5.143,0.257,6.09,2.308c0.189,0.408,0.308,0.836,0.364,1.263c-0.076,1.158-0.441,2.284-1.053,3.234
	c-0.054,0.046-0.098,0.099-0.155,0.144c-1.573,1.205-4.083,0.547-6.883-1.796c-0.04-0.036-0.093-0.05-0.141-0.044l0.017-0.083
	c0.082-0.366,0.204-0.722-0.238-1.185c-0.46-0.189-0.94-0.257-1.497,0.065c-0.54,1.072,0.487,2.195,1.638,1.567
	c3.25,2.711,5.389,2.659,6.565,2.211c-0.17,0.181-0.35,0.353-0.545,0.507c-2.463,1.96-6.115,1.532-10.066-1.15
	c0.022-0.025,0.051-0.037,0.073-0.065l-0.082-0.44c-0.053-0.373-0.068-0.748-0.649-1.023c-0.495-0.008-0.971,0.1-1.374,0.601
	c-0.098,0.984,0.809,1.604,1.604,1.236c4.201,2.906,8.126,3.361,10.801,1.23c0.158-0.126,0.301-0.271,0.447-0.415
	c-0.936,1.625-2.091,3.056-3.404,4.099c-1.61,1.28-4.156,2.521-7.128,1.177l-0.007-0.074c-0.091-0.454-0.065-0.96-0.776-1.125
	c-1.271-0.205-1.854,1.754-0.46,2.194c0.475,0.098,0.727-0.283,1.03-0.547c2.536,1.151,5.183,0.723,7.651-1.236
	c2.143-1.702,3.883-4.398,4.945-7.32c1.031-2.839,1.421-5.897,0.896-8.458c-0.641-3.145-2.513-5.233-5.413-6.032
	c-0.005,0-0.013,0-0.018,0l-0.099-0.263C37.203,11.628,37.118,11.256,36.498,11.095z"/>
<path fill="#512A5B" d="M57.535,1.378c-0.442-0.225-0.917-0.34-1.498-0.071c-0.575,0.923,0.121,1.983,1.143,1.81
	c0.009,0.015,0.014,0.035,0.026,0.049c2.165,2.814,1.544,5.666,0.639,7.561c-0.798,1.675-2.134,3.274-3.756,4.637
	c0.51-0.708,0.901-1.511,1.123-2.368c0.397-1.54,0.738-5.405-4.35-8.533l-0.017-0.271c-0.007-0.373,0.024-0.75-0.514-1.093
	c-0.489-0.071-0.974-0.024-1.437,0.422c-0.243,1.056,0.761,1.842,1.671,1.341c3.425,2.091,4.944,4.999,4.166,8.01
	c-0.128,0.502-0.323,0.985-0.565,1.439c0.457-2.376-0.942-4.565-3.772-5.871c-0.042-0.022-0.09-0.018-0.133-0.004l-0.004-0.042
	c-0.015-0.375,0.01-0.75-0.534-1.086c-0.493-0.06-0.976-0.001-1.428,0.451c-0.247,1.185,1.046,2.004,1.998,1.084l-0.001-0.017
	c2.652,1.245,3.953,3.302,3.479,5.509c-0.097,0.441-0.26,0.853-0.468,1.227c-0.76,0.879-1.729,1.561-2.79,1.951
	c-0.071,0.006-0.137,0.021-0.209,0.021c-1.98,0.016-3.592-2.016-4.418-5.575c-0.011-0.052-0.045-0.095-0.084-0.121l0.059-0.057
	c0.288-0.241,0.6-0.454,0.526-1.089c-0.254-0.425-0.6-0.771-1.236-0.851c-1.078,0.534-0.932,2.047,0.366,2.238
	c0.966,4.121,2.705,5.366,3.915,5.717c-0.247,0.041-0.494,0.071-0.743,0.077c-3.146,0.084-5.805-2.453-7.346-6.975
	c0.032-0.006,0.061,0.003,0.094-0.006l0.204-0.403c0.177-0.329,0.393-0.637,0.093-1.206c-0.389-0.306-0.836-0.502-1.457-0.347
	c-0.671,0.728-0.321,1.767,0.538,1.954c1.609,4.847,4.471,7.571,7.889,7.479c0.203-0.006,0.404-0.037,0.608-0.062
	c-1.728,0.735-3.509,1.185-5.186,1.227c-2.059,0.055-4.837-0.485-6.404-3.347l0.04-0.063c0.201-0.418,0.525-0.809,0.057-1.367
	c-0.892-0.928-2.535,0.287-1.688,1.478c0.322,0.363,0.751,0.21,1.151,0.184c1.334,2.443,3.706,3.694,6.856,3.614
	c2.733-0.07,5.749-1.178,8.354-2.873c2.531-1.648,4.681-3.856,5.803-6.218c1.382-2.897,1.138-5.692-0.695-8.074
	c-0.005-0.003-0.009-0.007-0.013-0.013l0.076-0.268C57.778,2.227,57.931,1.88,57.535,1.378z"/>
<path fill="#512A5B" d="M48.978,25.642c0.052,0.004,0.104,0.007,0.155,0.013c0.72,2.279,2.508,3.73,5.171,4.2
	c0.589,0.104,1.219,0.158,1.871,0.158c1.81,0,3.765-0.397,5.66-1.145c2.534-1.005,4.649-2.512,5.953-4.247
	c1.666-2.211,1.946-4.613,0.809-6.945l0.089-0.175l0.031-0.058c0.151-0.256,0.318-0.551,0.068-1.04l-0.019-0.025
	c-0.424-0.34-0.828-0.436-1.306-0.33l-0.022,0.005l-0.016,0.015c-0.321,0.34-0.418,0.798-0.253,1.199
	c0.151,0.364,0.492,0.603,0.9,0.633c0,0.003,0.002,0.006,0.002,0.01c1.321,2.689,0.325,4.947-0.742,6.366
	c-0.822,1.097-2.007,2.113-3.443,2.959c0.399-0.436,0.727-0.915,0.976-1.429c0.592-1.219,1.565-4.43-2.183-7.948l0.038-0.254
	c0.056-0.294,0.119-0.625-0.278-1.007l-0.025-0.017c-0.525-0.19-0.923-0.15-1.341,0.115l-0.019,0.012l-0.01,0.019
	c-0.169,0.374-0.148,0.772,0.058,1.092c0.244,0.378,0.709,0.555,1.162,0.432c2.462,2.303,3.223,4.966,2.082,7.307
	c-0.12,0.249-0.264,0.492-0.43,0.729c0.518-1.82-0.331-3.736-2.338-5.208c-0.022-0.016-0.046-0.03-0.073-0.035l0.003-0.014
	c0.051-0.296,0.109-0.634-0.296-1.009l-0.028-0.015c-0.209-0.07-0.389-0.103-0.564-0.103c-0.271,0-0.524,0.079-0.773,0.247
	l-0.019,0.01l-0.008,0.021c-0.162,0.376-0.135,0.771,0.073,1.085c0.191,0.29,0.511,0.463,0.855,0.463
	c0.215,0,0.429-0.063,0.64-0.189c1.943,1.466,2.654,3.363,1.902,5.083c-0.145,0.333-0.342,0.645-0.575,0.92
	c-0.785,0.603-1.693,0.999-2.629,1.141c-0.019-0.002-0.04-0.003-0.062-0.003c-0.032-0.003-0.065-0.004-0.097-0.01
	c-1.628-0.318-2.609-2.269-2.696-5.357c-0.001-0.029-0.007-0.06-0.02-0.088l0.047-0.023c0.263-0.143,0.562-0.305,0.608-0.855
	l0.002-0.015l-0.005-0.015c-0.123-0.345-0.34-0.768-0.938-0.969l-0.021-0.006l-0.021,0.006c-0.502,0.133-0.84,0.529-0.863,1.011
	c-0.021,0.46,0.259,0.859,0.735,1.05c0.105,3.254,1.13,4.686,2.074,5.309c-0.114-0.008-0.218-0.022-0.319-0.04
	c-2.579-0.452-4.36-2.978-4.896-6.938h0.032l0.256-0.33l0.038-0.044c0.196-0.228,0.418-0.485,0.262-1.017l-0.015-0.027
	c-0.235-0.275-0.598-0.6-1.219-0.564h-0.022l-0.019,0.013c-0.343,0.247-0.525,0.628-0.485,1.019c0.037,0.356,0.251,0.659,0.577,0.82
	c0.534,4.345,2.499,7.126,5.393,7.632c0.003,0,0.006,0,0.008,0.001c-1.43,0.243-2.81,0.262-4.016,0.05
	c-1.704-0.3-3.9-1.204-4.724-3.805l0.018-0.021c0.032-0.044,0.066-0.085,0.1-0.126c0.219-0.27,0.466-0.573,0.185-1.09
	c-0.187-0.296-0.48-0.457-0.826-0.457c-0.367,0-0.73,0.193-0.925,0.492c-0.185,0.287-0.202,0.638-0.043,0.993
	C48.374,25.597,48.695,25.621,48.978,25.642z"/>
<path fill="#512A5B" d="M71.188,24.435c1.204,1.934,3.252,3.69,5.766,4.943c2.106,1.049,4.347,1.628,6.306,1.628
	c0.283,0,0.563-0.014,0.834-0.037c2.757-0.239,4.729-1.637,5.704-4.041l0.255-0.062c0.292-0.063,0.623-0.134,0.821-0.647
	l0.005-0.015l-0.003-0.016c-0.019-0.365-0.111-0.834-0.629-1.193l-0.019-0.012l-0.06-0.002c-0.456,0-0.847,0.239-1.025,0.624
	c-0.165,0.356-0.114,0.758,0.135,1.081c-0.002,0.004-0.002,0.007-0.004,0.01c-1.121,2.778-3.467,3.548-5.233,3.702
	c-1.357,0.118-2.922-0.085-4.503-0.585c0.019,0,0.038,0,0.055,0c0.572,0,1.132-0.077,1.661-0.228
	c1.303-0.372,4.343-1.797,4.457-6.936l0.156-0.107l0.051-0.029c0.257-0.155,0.551-0.33,0.571-0.883v-0.015L86.485,21.6
	c-0.142-0.34-0.378-0.75-0.983-0.922l-0.021-0.005l-0.021,0.007c-0.446,0.141-0.754,0.495-0.805,0.923
	c-0.047,0.396,0.14,0.776,0.487,1c-0.069,3.371-1.541,5.714-4.044,6.433c-0.271,0.076-0.547,0.131-0.832,0.165
	c1.699-0.83,2.559-2.742,2.313-5.218c-0.002-0.027-0.011-0.051-0.023-0.077l0.018-0.012c0.253-0.16,0.54-0.34,0.544-0.89
	l0.002-0.017l-0.006-0.015c-0.146-0.334-0.393-0.743-1.001-0.899l-0.019-0.006l-0.021,0.006c-0.496,0.168-0.807,0.589-0.794,1.076
	c0.013,0.467,0.33,0.849,0.83,0.999c0.207,2.427-0.73,4.224-2.51,4.813c-0.349,0.114-0.712,0.177-1.072,0.185
	c-0.974-0.181-1.875-0.592-2.597-1.186c-0.015-0.019-0.032-0.038-0.047-0.056c-0.021-0.026-0.044-0.053-0.062-0.08
	c-0.849-1.421-0.053-3.457,2.189-5.583c0.021-0.023,0.038-0.046,0.051-0.074l0.047,0.018c0.146,0.05,0.295,0.103,0.462,0.103
	c0.194,0,0.384-0.07,0.583-0.222l0.019-0.022c0.178-0.321,0.347-0.764,0.095-1.343l-0.008-0.021l-0.018-0.012
	c-0.204-0.133-0.433-0.204-0.656-0.204c-0.354,0-0.682,0.17-0.874,0.455c-0.196,0.292-0.228,0.655-0.093,1.028
	c-2.35,2.256-2.729,3.974-2.564,5.093c-0.065-0.09-0.127-0.177-0.182-0.264c-1.388-2.222-0.697-5.236,1.889-8.277l0.021,0.023
	l0.42-0.03l0.06-0.003c0.3-0.005,0.638-0.015,0.931-0.481l0.009-0.03c0.051-0.362,0.051-0.837-0.393-1.286l-0.018-0.018
	l-0.021-0.003c-0.458-0.097-0.901,0.059-1.155,0.405c-0.186,0.257-0.24,0.58-0.151,0.89c-2.878,3.3-3.636,6.622-2.075,9.112
	c0.002,0.003,0.002,0.005,0.006,0.008c-1.138-0.899-2.075-1.914-2.723-2.956c-0.914-1.468-1.71-3.709-0.323-6.056h0.025
	c0.053-0.004,0.107-0.007,0.16-0.008c0.347-0.018,0.739-0.037,0.938-0.594c0.084-0.304,0.029-0.606-0.156-0.851
	c-0.205-0.271-0.545-0.438-0.885-0.438c-0.405,0-0.741,0.231-0.923,0.642c-0.115,0.353,0.081,0.609,0.256,0.833
	c0.031,0.041,0.062,0.081,0.091,0.122C69.643,19.838,69.755,22.137,71.188,24.435z"/>
<path fill="#512A5B" d="M53.803,66.814c2.023-1.271,2.978-3.367,2.76-6.065c-0.177-2.235-1.217-4.801-2.85-7.038
	c-1.609-2.199-3.602-3.864-5.611-4.69c-0.969-0.399-1.924-0.6-2.841-0.6c-1.494,0-2.871,0.529-4.082,1.566l-0.258-0.059
	c-0.127-0.036-0.258-0.071-0.399-0.071c-0.22,0-0.419,0.085-0.625,0.268l-0.017,0.025c-0.15,0.334-0.285,0.791,0.009,1.347
	l0.011,0.02l0.019,0.011c0.494,0.273,1.086,0.167,1.406-0.235c0.189-0.238,0.261-0.538,0.204-0.852
	c0.003-0.002,0.005-0.005,0.007-0.006c1.109-0.953,2.364-1.438,3.727-1.438c0.846,0,1.729,0.186,2.622,0.552
	c1.269,0.523,2.551,1.413,3.731,2.589c-0.523-0.277-1.069-0.473-1.627-0.587c-0.357-0.072-0.729-0.107-1.106-0.107
	c-1.706,0-4.138,0.734-6.04,4.223l-0.189,0.022l-0.061,0.005c-0.3,0.017-0.64,0.039-0.908,0.521l-0.009,0.029
	c-0.034,0.362-0.013,0.836,0.448,1.269l0.016,0.015l0.021,0.003c0.496,0.084,0.962-0.124,1.188-0.529
	c0.177-0.318,0.169-0.703-0.019-1.034c1.387-2.553,3.343-3.96,5.512-3.96c0.341,0,0.688,0.036,1.033,0.104
	c0.272,0.055,0.545,0.133,0.815,0.232c-0.032,0-0.062,0-0.094,0c-1.867,0-3.456,1.304-4.354,3.575
	c-0.013,0.025-0.018,0.051-0.018,0.081l-0.018,0.001c-0.3,0.025-0.637,0.055-0.898,0.539l-0.007,0.03
	c-0.026,0.366,0.005,0.839,0.475,1.259l0.016,0.015l0.023,0.003c0.543,0.085,1.043-0.192,1.228-0.662
	c0.159-0.409,0.044-0.853-0.308-1.196c0.833-2.014,2.242-3.167,3.872-3.167c0.187,0,0.377,0.015,0.567,0.045
	c0.362,0.058,0.716,0.17,1.038,0.327c0.78,0.603,1.391,1.386,1.763,2.244c0.004,0.022,0.008,0.043,0.013,0.065
	c0.007,0.034,0.016,0.07,0.017,0.104c0.104,1.652-1.536,3.093-4.501,3.956c-0.032,0.007-0.06,0.022-0.083,0.04l-0.037-0.039
	c-0.171-0.185-0.366-0.393-0.752-0.393c-0.07,0-0.146,0.006-0.224,0.021l-0.03,0.012c-0.304,0.204-0.658,0.521-0.702,1.149
	l-0.002,0.021l0.012,0.019c0.212,0.38,0.579,0.604,0.98,0.604c0.449,0,0.96-0.312,1.047-0.996c3.128-0.925,4.251-2.279,4.617-3.349
	c0.019,0.11,0.032,0.217,0.039,0.32c0.214,2.613-1.782,4.974-5.478,6.487l0,0l-0.012-0.033l-0.38-0.166l-0.057-0.026
	c-0.161-0.077-0.326-0.158-0.531-0.158c-0.166,0-0.334,0.051-0.517,0.161l-0.023,0.02c-0.21,0.302-0.428,0.724-0.239,1.328
	l0.006,0.02l0.017,0.015c0.221,0.181,0.476,0.278,0.739,0.278c0.496,0,0.917-0.348,1.016-0.832c4.073-1.608,6.269-4.209,6.028-7.141
	c0-0.004,0-0.008,0-0.013c0.594,1.326,0.96,2.657,1.061,3.877c0.137,1.725-0.185,4.079-2.492,5.532l-0.024-0.014
	c-0.048-0.018-0.097-0.042-0.145-0.065c-0.172-0.076-0.348-0.16-0.543-0.16c-0.194,0-0.378,0.083-0.562,0.258
	c-0.276,0.295-0.342,0.694-0.18,1.072c0.172,0.396,0.556,0.661,0.953,0.661c0.231,0,0.46-0.087,0.672-0.255
	c0.264-0.263,0.207-0.579,0.157-0.857C53.821,66.916,53.81,66.864,53.803,66.814z"/>
<path fill="#512A5B" d="M92.396,51.702c-0.104-0.055-0.205-0.081-0.312-0.081c-0.198,0-0.38,0.092-0.553,0.182
	c-0.049,0.022-0.093,0.046-0.138,0.068c-1.108-0.967-2.398-1.456-3.827-1.456c-0.887,0-1.819,0.189-2.778,0.566
	c-2.092,0.82-4.245,2.558-5.913,4.766c-1.638,2.175-2.657,4.563-2.866,6.727c-0.269,2.753,0.745,4.95,2.928,6.348l0.015,0.266
	c0.011,0.299,0.021,0.635,0.487,0.919l0.03,0.011c0.101,0.012,0.191,0.018,0.278,0.018c0.399,0,0.718-0.133,1.007-0.418l0.017-0.017
	l0.005-0.02c0.078-0.361,0-0.704-0.214-0.967c-0.306-0.378-0.844-0.491-1.292-0.259c-0.004,0-0.006-0.003-0.01-0.006
	c-2.525-1.608-2.853-4.053-2.684-5.82c0.136-1.367,0.616-2.852,1.399-4.32c-0.113,0.58-0.144,1.158-0.088,1.728
	c0.128,1.349,0.973,4.599,6.003,5.649l0.098,0.24c0.107,0.277,0.228,0.594,0.762,0.712l0.015,0.003l0.018-0.003
	c0.358-0.074,0.804-0.231,1.085-0.798l0.011-0.018L85.875,65.7c-0.082-0.661-0.599-1.006-1.067-1.006
	c-0.287,0-0.56,0.12-0.767,0.342c-3.304-0.685-5.337-2.561-5.584-5.154c-0.025-0.273-0.031-0.555-0.013-0.84
	c0.509,1.819,2.231,3.012,4.703,3.219l0.028,0.003c0.019,0,0.038-0.003,0.059-0.008l0.007,0.015
	c0.109,0.278,0.236,0.593,0.774,0.703l0.015,0.003l0.017-0.003c0.357-0.083,0.801-0.248,1.07-0.819l0.009-0.019l-0.002-0.022
	c-0.095-0.648-0.61-0.987-1.07-0.987c-0.412,0-0.765,0.233-0.976,0.644c-2.423-0.242-4.02-1.49-4.274-3.345
	c-0.049-0.361-0.043-0.733,0.015-1.09c0.353-0.919,0.92-1.729,1.646-2.34c0.021-0.01,0.042-0.022,0.063-0.032
	c0.029-0.017,0.055-0.032,0.082-0.042c0.26-0.096,0.534-0.146,0.811-0.146c1.37,0,2.891,1.176,4.279,3.315
	c0.017,0.025,0.038,0.047,0.063,0.065l-0.025,0.041c-0.152,0.261-0.323,0.557-0.078,1.049l0.021,0.024
	c0.2,0.163,0.517,0.378,0.954,0.378c0.113,0,0.229-0.012,0.35-0.04l0.02-0.004l0.015-0.018c0.334-0.343,0.433-0.81,0.258-1.217
	c-0.192-0.453-0.676-0.701-1.221-0.609c-1.805-2.755-3.442-3.41-4.536-3.452c0.104-0.05,0.198-0.091,0.293-0.13
	c0.543-0.212,1.11-0.322,1.689-0.322c2.005,0,4.171,1.312,6.106,3.691c-0.002,0.002-0.004,0.002-0.004,0.002l-0.025,0.019
	l-0.049,0.411l-0.01,0.062c-0.045,0.296-0.102,0.632,0.306,1.003l0.025,0.017c0.536,0.171,0.934,0.121,1.339-0.157l0.019-0.012
	l0.007-0.02c0.158-0.37,0.131-0.757-0.074-1.064c-0.207-0.317-0.565-0.491-0.961-0.456c-2.079-2.624-4.447-4.069-6.675-4.069
	c-0.65,0-1.292,0.123-1.904,0.363c-0.002,0.002-0.006,0.003-0.011,0.003c1.096-0.952,2.266-1.686,3.407-2.137
	c0.883-0.346,1.744-0.52,2.563-0.52c1.289,0,2.452,0.44,3.451,1.306l-0.007,0.029c-0.006,0.054-0.012,0.106-0.021,0.161
	c-0.047,0.345-0.1,0.732,0.411,1.028c0.142,0.071,0.29,0.107,0.438,0.107c0.443,0,0.851-0.32,0.992-0.773
	C92.963,52.411,92.803,51.985,92.396,51.702z"/>
<path fill="#512A5B" d="M95.611,43.252l-0.008-0.021l-0.018-0.015c-0.213-0.154-0.454-0.233-0.694-0.233
	c-0.3,0-0.583,0.124-0.779,0.341c-0.189,0.21-0.28,0.486-0.262,0.785c-1.507,1.068-3.055,1.634-4.473,1.634
	c-1.146,0-2.189-0.356-3.104-1.058c-0.22-0.168-0.431-0.357-0.629-0.566c0.557,0.288,1.156,0.436,1.788,0.436
	c1.258,0,2.566-0.583,3.783-1.685c0.021-0.02,0.037-0.042,0.048-0.064l0.021,0.005c0.147,0.058,0.3,0.116,0.475,0.116
	c0.186,0,0.37-0.066,0.563-0.205l0.02-0.023c0.186-0.319,0.365-0.76,0.133-1.34l-0.009-0.022l-0.019-0.011
	c-0.209-0.145-0.443-0.221-0.68-0.221c-0.349,0-0.674,0.167-0.868,0.45c-0.198,0.291-0.234,0.657-0.099,1.035
	c-1.098,0.97-2.266,1.481-3.378,1.481c-0.718,0-1.385-0.212-1.982-0.635c-0.3-0.21-0.565-0.465-0.787-0.75
	c-0.435-0.889-0.64-1.86-0.593-2.793l0.015-0.054c0.008-0.036,0.017-0.074,0.031-0.11c0.473-1.138,1.795-1.762,3.724-1.762
	c0.632,0,1.324,0.065,2.064,0.195c0.03,0.006,0.06,0.006,0.091-0.003l0.016,0.05c0.086,0.286,0.184,0.611,0.713,0.767l0.015,0.005
	l0.018-0.003c0.362-0.051,0.821-0.179,1.133-0.724l0.013-0.019l-0.002-0.022c-0.038-0.701-0.576-1.079-1.063-1.079
	c-0.367,0-0.701,0.197-0.929,0.54c-0.745-0.126-1.44-0.191-2.069-0.191c-1.912,0-2.97,0.587-3.549,1.162
	c0.032-0.11,0.067-0.209,0.104-0.303c0.874-2.223,3.262-3.447,6.724-3.447c0.342,0,0.694,0.013,1.054,0.037l-0.007,0.032
	l0.271,0.318l0.036,0.046c0.184,0.236,0.401,0.514,0.941,0.461l0.031-0.01c0.321-0.177,0.699-0.459,0.801-1.084l0.002-0.022
	l-0.009-0.02c-0.189-0.422-0.574-0.682-1.003-0.682c-0.32,0-0.616,0.146-0.816,0.403c-0.443-0.034-0.883-0.052-1.305-0.052
	c-3.711,0-6.289,1.352-7.252,3.81c0,0.004-0.004,0.007-0.004,0.011c0.049-1.456,0.304-2.811,0.754-3.949
	c0.636-1.608,1.959-3.581,4.674-3.868l0.017,0.022c0.036,0.04,0.07,0.082,0.104,0.123c0.171,0.213,0.369,0.453,0.725,0.453
	c0.095,0,0.193-0.018,0.31-0.05c0.532-0.204,0.692-0.721,0.614-1.142c-0.091-0.492-0.519-0.994-1.264-0.82
	c-0.353,0.115-0.439,0.428-0.518,0.701c-0.013,0.05-0.027,0.097-0.042,0.145c-2.375,0.251-4.157,1.711-5.151,4.227
	c-0.836,2.117-1.028,4.809-0.538,7.578c0.475,2.682,1.53,5.056,2.968,6.682c1.412,1.596,3.074,2.405,4.936,2.405
	c0.556,0,1.132-0.075,1.712-0.225l0.201,0.168c0.18,0.156,0.365,0.319,0.686,0.319c0.1,0,0.207-0.016,0.321-0.047l0.029-0.015
	c0.281-0.234,0.602-0.585,0.583-1.214v-0.021l-0.013-0.019c-0.226-0.321-0.563-0.507-0.927-0.507c-0.471,0-0.865,0.311-0.999,0.774
	c-0.004,0.002-0.006,0.003-0.01,0.003c-0.534,0.139-1.064,0.21-1.575,0.21c-2.113,0-3.623-1.203-4.516-2.212
	c-0.903-1.026-1.663-2.39-2.208-3.964c0.349,0.476,0.752,0.894,1.203,1.241c0.574,0.437,1.788,1.172,3.494,1.172
	c1.528,0,3.12-0.578,4.734-1.721l0.237,0.089c0.149,0.061,0.306,0.125,0.489,0.125s0.363-0.064,0.556-0.196l0.022-0.022
	C95.645,44.273,95.834,43.836,95.611,43.252z"/>
<path fill="#512A5B" d="M76.424,68.911c-0.045-0.023-0.091-0.048-0.136-0.071c0.203-2.382-0.895-4.405-3.182-5.855
	c-1.921-1.219-4.532-1.915-7.343-1.956c-0.076-0.002-0.153-0.002-0.229-0.002c-2.638,0-5.086,0.59-6.892,1.659
	c-2.382,1.414-3.555,3.527-3.392,6.116l-0.206,0.168c-0.233,0.184-0.498,0.39-0.456,0.938l0.009,0.032
	c0.179,0.319,0.463,0.7,1.085,0.798l0.021,0.004l0.02-0.01c0.425-0.189,0.69-0.577,0.689-1.008c0-0.393-0.225-0.743-0.59-0.928
	c0-0.003,0-0.006,0-0.011c-0.193-2.989,1.585-4.697,3.111-5.604c1.179-0.699,2.662-1.187,4.314-1.422
	c-0.536,0.251-1.022,0.568-1.446,0.948c-1.013,0.901-3.135,3.499-1.011,8.181l-0.133,0.217c-0.164,0.252-0.35,0.537-0.129,1.04
	l0.018,0.027c0.223,0.201,0.54,0.429,1.007,0.429c0.09,0,0.184-0.006,0.279-0.024l0.021-0.003l0.016-0.016
	c0.341-0.321,0.465-0.772,0.324-1.183c-0.13-0.376-0.461-0.639-0.871-0.69c-1.4-3.066-1.088-5.817,0.858-7.548
	c0.208-0.185,0.435-0.355,0.675-0.51c-1.171,1.486-1.115,3.581,0.179,5.706c0.015,0.022,0.032,0.042,0.054,0.059l-0.008,0.013
	c-0.159,0.253-0.341,0.543-0.11,1.043l0.018,0.026c0.329,0.283,0.634,0.409,0.99,0.409c0.098,0,0.199-0.01,0.304-0.029l0.022-0.004
	l0.016-0.017c0.347-0.34,0.455-0.811,0.285-1.229c-0.187-0.458-0.667-0.709-1.216-0.624c-1.238-2.101-1.173-4.125,0.174-5.425
	c0.263-0.252,0.566-0.467,0.885-0.632c0.945-0.257,1.948-0.277,2.862-0.055c0.019,0.011,0.039,0.021,0.059,0.03
	c0.029,0.014,0.059,0.028,0.088,0.047c1.383,0.909,1.547,3.087,0.449,5.974c-0.011,0.03-0.017,0.062-0.015,0.092l-0.053,0.006
	c-0.297,0.03-0.635,0.064-0.887,0.555l-0.008,0.032c-0.018,0.366,0.021,0.84,0.497,1.251l0.017,0.015l0.02,0.003
	c0.062,0.009,0.12,0.012,0.178,0.012c0.467,0,0.875-0.267,1.035-0.68c0.157-0.408,0.042-0.85-0.304-1.188
	c1.142-3.051,0.738-4.764,0.104-5.703c0.099,0.052,0.189,0.105,0.276,0.162c2.216,1.396,2.902,4.411,1.891,8.276l-0.032-0.013
	l-0.362,0.208l-0.063,0.034c-0.262,0.136-0.564,0.29-0.623,0.833v0.015l0.004,0.016c0.114,0.347,0.321,0.776,0.914,0.989
	l0.021,0.008l0.023-0.004c0.411-0.098,0.724-0.382,0.836-0.757c0.101-0.344,0.019-0.706-0.222-0.979
	c1.163-4.223,0.405-7.545-2.083-9.114c0,0-0.002,0-0.002-0.003c1.419,0.324,2.701,0.834,3.731,1.484
	c1.461,0.928,3.147,2.601,2.92,5.32l-0.023,0.011c-0.045,0.028-0.096,0.053-0.144,0.08c-0.305,0.165-0.65,0.35-0.587,0.938
	c0.099,0.567,0.582,0.819,1.016,0.819c0.293,0,0.569-0.112,0.76-0.306c0.189-0.196,0.285-0.463,0.274-0.781
	C76.966,69.181,76.679,69.038,76.424,68.911z"/>
<path fill="#512A5B" d="M40.695,42.677c0.19,0,0.377-0.055,0.543-0.155c1.821,0.869,3.518,1.309,5.046,1.309
	c1.756,0,3.238-0.605,4.288-1.755c0.002,0,0.004-0.003,0.005-0.004c-0.565,1.338-1.29,2.511-2.115,3.414
	c-0.891,0.971-2.363,2.129-4.331,2.129c-0.463,0-0.94-0.063-1.417-0.192l-0.007-0.023c-0.019-0.051-0.036-0.104-0.052-0.154
	c-0.108-0.327-0.233-0.703-0.824-0.743c-0.608,0-0.961,0.49-0.998,0.971c-0.036,0.473,0.227,0.993,0.902,1.094l0.032,0.001
	c0.35,0,0.536-0.248,0.701-0.468c0.03-0.042,0.062-0.083,0.094-0.125c0.53,0.142,1.059,0.213,1.576,0.213
	c1.74,0,3.335-0.781,4.747-2.318c1.517-1.655,2.689-4.164,3.216-6.88c0.515-2.678,0.378-5.271-0.384-7.303
	c-0.97-2.589-2.841-4.113-5.421-4.415l-0.133-0.23c-0.139-0.264-0.297-0.56-0.841-0.612l-0.016-0.003l-0.015,0.006
	c-0.347,0.118-0.772,0.331-0.979,0.925l-0.007,0.021l0.005,0.02c0.129,0.523,0.553,0.872,1.051,0.872
	c0.328,0,0.632-0.156,0.84-0.431c0.003,0,0.006,0,0.01,0.001c2.976,0.333,4.347,2.386,4.97,4.048
	c0.481,1.28,0.701,2.825,0.643,4.492c-0.152-0.571-0.379-1.103-0.679-1.587c-0.512-0.836-2.055-2.779-5.323-2.779
	c-0.797,0-1.656,0.116-2.555,0.344l-0.144-0.125l-0.049-0.044c-0.18-0.17-0.367-0.345-0.709-0.345c-0.089,0-0.186,0.012-0.288,0.038
	l-0.029,0.014c-0.289,0.224-0.622,0.562-0.625,1.194l-0.001,0.022l0.012,0.019c0.225,0.341,0.57,0.54,0.948,0.54
	c0.467,0,0.853-0.292,0.995-0.75c0.85-0.218,1.668-0.329,2.435-0.329c2.167,0,3.842,0.864,4.845,2.5
	c0.146,0.233,0.274,0.487,0.383,0.753c-0.773-0.876-1.854-1.336-3.155-1.336c-0.785,0-1.625,0.172-2.493,0.509
	c-0.023,0.009-0.046,0.023-0.067,0.042l-0.013-0.012c-0.183-0.164-0.37-0.333-0.701-0.333c-0.096,0-0.196,0.015-0.308,0.043
	l-0.028,0.013c-0.284,0.231-0.609,0.576-0.598,1.207v0.02l0.011,0.021c0.227,0.332,0.569,0.521,0.94,0.521
	c0.277,0,0.535-0.107,0.728-0.299c0.203-0.204,0.314-0.484,0.321-0.813c0.773-0.287,1.517-0.433,2.21-0.433
	c1.342,0,2.415,0.54,3.1,1.559c0.201,0.304,0.36,0.64,0.466,0.984c0.086,0.981-0.067,1.96-0.449,2.825
	c-0.016,0.018-0.03,0.038-0.045,0.059c-0.018,0.023-0.034,0.049-0.055,0.07c-0.481,0.508-1.146,0.765-1.975,0.765
	c-1.111,0-2.49-0.474-3.99-1.373c-0.025-0.015-0.056-0.023-0.085-0.029l0.004-0.056c0.02-0.299,0.044-0.635-0.392-0.968
	l-0.028-0.013c-0.16-0.037-0.305-0.055-0.438-0.055c-0.325,0-0.613,0.104-0.882,0.323l-0.017,0.015l-0.006,0.021
	c-0.12,0.366-0.065,0.745,0.145,1.034c0.196,0.27,0.498,0.423,0.829,0.423c0.237,0,0.477-0.082,0.695-0.238
	c1.561,0.925,2.95,1.393,4.131,1.393c0.541,0,1.029-0.098,1.462-0.29c-0.071,0.091-0.138,0.17-0.208,0.244
	c-0.935,1.026-2.273,1.57-3.871,1.57c-1.388,0-2.938-0.393-4.61-1.165l0.018-0.029l-0.141-0.393l-0.018-0.059
	c-0.089-0.287-0.187-0.612-0.715-0.767l-0.015-0.002l-0.017,0.001c-0.363,0.048-0.82,0.178-1.132,0.725l-0.011,0.021l0.001,0.021
	C39.679,42.303,40.213,42.677,40.695,42.677z"/>
<g>
	<g>
		<path fill="#512A5B" d="M0,113.582h1.69v-11.987H0v-0.285h5.471c4.445,0,6.326,2.394,6.326,6.079c0,3.59-1.747,6.479-6.326,6.479
			H0V113.582z M3.553,101.595v11.987h1.956c2.85,0,4.256-2.07,4.256-5.984c0-4.084-1.406-6.003-4.256-6.003H3.553z"/>
		<path fill="#512A5B" d="M19.208,101.177c3.989,0,5.718,2.526,5.718,6.25c0,3.628-1.596,6.573-5.718,6.573
			c-4.256,0-5.699-2.773-5.699-6.573C13.509,104.102,15.104,101.177,19.208,101.177z M19.227,113.753
			c3.097,0,3.667-2.888,3.667-6.117c0-3.534-0.513-6.231-3.667-6.231c-3.172,0-3.686,2.869-3.686,6.231
			C15.541,111.131,16.055,113.753,19.227,113.753z"/>
		<path fill="#512A5B" d="M27.663,101.785v10.656c0,0.723,0.285,1.141,1.121,1.141h0.589v0.285h-3.724v-0.285h0.569
			c0.836,0,1.141-0.418,1.141-1.141v-10.847h-1.691v-0.285h3.818l3.856,9.765l3.382-9.765h3.704v0.285h-1.69v11.987h1.69v0.285
			h-5.243v-0.285h1.691v-11.76l-4.161,12.045h-0.284L27.663,101.785z"/>
		<path fill="#512A5B" d="M43.111,101.595H41.42v-0.285h5.263v0.285h-1.69v6.991c0,3.646,0.836,5.129,3.438,5.129
			c2.716,0,4.008-1.71,4.008-4.692v-6.288c0-0.723-0.304-1.14-1.14-1.14h-0.57v-0.285h3.705v0.285h-0.589
			c-0.836,0-1.121,0.417-1.121,1.14v6.326c0,2.754-1.178,4.939-4.293,4.939c-4.123,0-5.319-1.995-5.319-5.414V101.595z"/>
		<path fill="#512A5B" d="M62.565,102.146c0.513-0.019,0.664-0.304,0.854-0.836h0.247c0,0-0.361,1.843-0.361,2.659v1.121h-0.285
			v-1.082c0-1.426-1.14-2.547-3.153-2.547c-2.052,0-3.172,0.969-3.172,2.451c0,3.211,7.39,1.634,7.39,6.383
			c0,1.9-1.235,3.705-3.989,3.705c-1.691,0-2.717-0.665-3.268-1.217c-0.399,0.076-0.608,0.685-0.685,1.084h-0.246
			c0,0,0.133-1.312,0.133-2.489v-1.538h0.285v0.987c0,1.521,1.52,2.888,3.78,2.888c1.843,0,3.248-0.893,3.248-2.451
			c0-3.229-7.39-1.748-7.39-6.478c0-2.071,1.311-3.609,3.913-3.609C61.33,101.177,62.147,101.728,62.565,102.146z"/>
		<path fill="#512A5B" d="M75.221,113.582h4.065c1.063,0,1.158-1.008,1.558-3.477h0.304c0,0-0.285,1.672-0.285,3.762h-9.194v-0.285
			h1.69v-11.987h-1.69v-0.285h5.243v0.285h-1.69V113.582z"/>
		<path fill="#512A5B" d="M82.669,113.582h1.69v-11.987h-1.69v-0.285h5.243v0.285h-1.69v11.987h1.69v0.285h-5.243V113.582z"/>
		<path fill="#512A5B" d="M90.061,113.582h1.69v-11.987h-1.69v-0.285h5.091c3.097,0,4.465,1.387,4.465,3.021
			c0,1.292-0.95,2.47-3.059,3.002v0.037c2.45,0.457,3.647,1.521,3.647,3.116c0,1.823-1.425,3.382-4.845,3.382h-5.3V113.582z
			 M95.171,107.293c1.425,0,2.488-0.551,2.488-2.716c0-2.204-1.045-2.982-2.564-2.982h-1.481v5.698H95.171z M95.342,113.582
			c1.919,0,2.906-1.141,2.906-3.191c0-2.033-1.045-2.812-2.944-2.812h-1.69v6.004H95.342z"/>
		<path fill="#512A5B" d="M102.145,113.582h1.69v-11.987h-1.69v-0.285h9.556c0,0-0.399,1.501-0.551,3.552h-0.285v-2.051
			c0-1.178-0.19-1.216-0.855-1.216h-4.312v5.927h3.039v-1.672h0.285v3.8h-0.285v-1.843h-3.039v5.775h4.198
			c1.063,0,1.158-1.008,1.558-3.477h0.304c0,0-0.285,1.729-0.285,3.762h-9.327V113.582z"/>
		<path fill="#512A5B" d="M124.334,112.29h0.285c-0.02,1.159-0.589,1.672-1.577,1.672c-2.146,0-2.374-2.108-2.45-3.173
			c-0.076-1.102-0.266-3.039-1.881-3.039h-1.69v5.832h1.672v0.285h-5.225v-0.285h1.69v-11.987h-1.69v-0.285h5.072
			c3.268,0,4.502,1.312,4.502,3.191c0,1.501-0.931,2.622-3.381,3.077v0.039c1.709,0.398,2.963,1.424,3.039,3.457
			c0.058,1.539,0.076,2.47,0.817,2.47C124.011,113.544,124.334,112.992,124.334,112.29z M118.673,107.465
			c1.786,0,2.355-0.95,2.355-2.85c0-1.957-0.627-3.021-2.45-3.021h-1.558v5.87H118.673z"/>
		<path fill="#512A5B" d="M132.866,113.582h1.33l-1.786-4.293h-4.369l-1.178,3.172c-0.247,0.684,0.152,1.121,1.026,1.121h0.569
			v0.285h-3.515v-0.285h0.38c0.589,0,0.932-0.285,1.235-1.121l4.198-11.228h0.285l5.129,12.349h0.931v0.285h-4.236V113.582z
			 M128.155,109.004h4.122l-2.185-5.225L128.155,109.004z"/>
	</g>
</g>
<path fill="#512A5B" d="M18.08,128.479c-0.027,0.541,0.405,0.855,1.008,0.855c0.478,0,0.874-0.207,0.874-0.621
	c0-1.206-2.449-0.387-2.449-2.16c0-0.793,0.612-1.279,1.594-1.279c0.999,0,1.584,0.505,1.584,1.198l-0.756,0.153
	c0-0.514-0.333-0.748-0.855-0.748c-0.432,0-0.801,0.189-0.801,0.576c0,1.171,2.476,0.406,2.476,2.135c0,0.756-0.585,1.35-1.692,1.35
	c-1.171,0-1.711-0.657-1.711-1.314L18.08,128.479z"/>
<path fill="#512A5B" d="M22.813,125.4h0.981l1.296,3.033l0.136,0.406c0.054-0.145,0.107-0.307,0.152-0.406l1.252-3.033h1.018v4.411
	h-0.712v-2.926c0-0.216,0.009-0.505,0.019-0.72l-0.252,0.693l-1.233,2.952h-0.495l-1.279-3.007c-0.062-0.145-0.126-0.36-0.188-0.567
	c0.009,0.198,0.018,0.441,0.018,0.622v2.952h-0.711V125.4z"/>
<path fill="#512A5B" d="M31.319,125.4h0.594l1.873,4.411h-0.811l-0.478-1.116h-1.836l-0.459,1.116h-0.757L31.319,125.4z
	 M30.914,128.102h1.332l-0.378-0.9c-0.09-0.207-0.207-0.514-0.288-0.766c-0.09,0.252-0.207,0.559-0.297,0.774L30.914,128.102z"/>
<path fill="#512A5B" d="M35.584,125.4h0.756v3.79h2.125v0.621h-2.881V125.4z"/>
<path fill="#512A5B" d="M40.3,125.4h0.756v3.79h2.125v0.621H40.3V125.4z"/>
<path fill="#512A5B" d="M47.761,125.4h1.575c0.883,0,1.504,0.314,1.504,1.143c0,0.361-0.261,0.766-0.657,0.938
	c0.612,0.135,0.892,0.611,0.892,1.035c0,0.818-0.576,1.296-1.675,1.296h-1.639V125.4z M48.517,125.994v1.279h0.657
	c0.576,0,0.855-0.181,0.855-0.667c0-0.45-0.279-0.612-0.855-0.612H48.517z M48.517,127.84v1.377h0.738
	c0.631,0,1.009-0.197,1.009-0.684c0-0.531-0.378-0.693-0.981-0.693H48.517z"/>
<path fill="#512A5B" d="M52.846,127.543c0-1.314,0.729-2.27,2.188-2.27c1.44,0,2.179,0.811,2.179,2.27
	c0,1.413-0.711,2.395-2.179,2.395C53.522,129.938,52.846,129.02,52.846,127.543z M56.393,127.615c0-1-0.378-1.738-1.359-1.738
	c-0.963,0-1.359,0.811-1.359,1.738c0,0.98,0.396,1.719,1.359,1.719C55.989,129.334,56.393,128.497,56.393,127.615z"/>
<path fill="#512A5B" d="M59.246,125.4h0.756v2.629c0,0.666,0.18,1.277,1.135,1.277c0.936,0,1.188-0.611,1.188-1.277V125.4h0.729
	v2.691c0,1.072-0.657,1.846-1.917,1.846c-1.297,0-1.891-0.711-1.891-1.846V125.4z"/>
<path fill="#512A5B" d="M64.842,125.4h4.052v0.621h-1.647v3.79H66.49v-3.79h-1.647V125.4z"/>
<path fill="#512A5B" d="M70.738,125.4h0.756v4.411h-0.756V125.4z"/>
<path fill="#512A5B" d="M76.193,129.91c0.35,0.352,0.783,0.729,1.367,0.729c0.262,0,0.559-0.063,0.559-0.063l-0.152,0.631
	c0,0-0.162,0.054-0.514,0.054c-0.855,0-1.531-0.737-2.152-1.359c-1.188-0.161-1.719-1.035-1.719-2.358
	c0-1.314,0.721-2.27,2.178-2.27c1.441,0,2.18,0.811,2.18,2.27C77.939,128.812,77.363,129.74,76.193,129.91z M77.119,127.615
	c0-1-0.377-1.738-1.359-1.738c-0.963,0-1.359,0.811-1.359,1.738c0,0.98,0.396,1.719,1.359,1.719
	C76.714,129.334,77.119,128.497,77.119,127.615z"/>
<path fill="#512A5B" d="M79.972,125.4h0.756v2.629c0,0.666,0.18,1.277,1.135,1.277c0.936,0,1.188-0.611,1.188-1.277V125.4h0.729
	v2.691c0,1.072-0.656,1.846-1.916,1.846c-1.297,0-1.891-0.711-1.891-1.846V125.4z"/>
<path fill="#512A5B" d="M86.091,125.4h2.926v0.621h-2.17v1.27h1.783v0.621h-1.783v1.278h2.225v0.621h-2.98V125.4z"/>
<path fill="#512A5B" d="M94.066,125.4h0.756v1.873h2.412V125.4h0.756v4.411h-0.756v-1.899h-2.412v1.899h-0.756V125.4z"/>
<path fill="#512A5B" d="M100.078,127.543c0-1.314,0.729-2.27,2.188-2.27c1.439,0,2.178,0.811,2.178,2.27
	c0,1.413-0.711,2.395-2.178,2.395C100.753,129.938,100.078,129.02,100.078,127.543z M103.625,127.615c0-1-0.379-1.738-1.359-1.738
	c-0.963,0-1.359,0.811-1.359,1.738c0,0.98,0.396,1.719,1.359,1.719C103.22,129.334,103.625,128.497,103.625,127.615z"/>
<path fill="#512A5B" d="M105.935,125.4h4.053v0.621h-1.648v3.79h-0.756v-3.79h-1.648V125.4z"/>
<path fill="#512A5B" d="M111.832,125.4h2.926v0.621h-2.17v1.27h1.783v0.621h-1.783v1.278h2.223v0.621h-2.979V125.4z"/>
<path fill="#512A5B" d="M116.871,125.4h0.756v3.79h2.125v0.621h-2.881V125.4z"/>
</svg>
